<svg width="497" height="392" viewBox="0 0 497 392" fill="none" xmlns="http://www.w3.org/2000/svg">
<path d="M139 0L150.226 34.5491H186.553L157.164 55.9017L168.389 90.4509L139 69.0983L109.611 90.4509L120.836 55.9017L91.4472 34.5491H127.774L139 0Z" fill="#CEEBE2"/>
<path d="M119.5 224L128.368 251.294L157.067 251.294L133.849 268.162L142.718 295.456L119.5 278.588L96.2825 295.456L105.151 268.162L81.9333 251.294L110.632 251.294L119.5 224Z" fill="#8ECAF5"/>
<path d="M386 116L393.184 138.111H416.434L397.625 151.777L404.809 173.889L386 160.223L367.191 173.889L374.375 151.777L355.566 138.111H378.816L386 116Z" fill="#F7E8E1"/>
<path d="M477 351L481.49 364.82H496.021L484.265 373.361L488.756 387.18L477 378.639L465.244 387.18L469.735 373.361L457.979 364.82H472.51L477 351Z" fill="#B0BAC1"/>
<path d="M11.5 27L14.0819 34.9463H22.4371L15.6776 39.8574L18.2595 47.8037L11.5 42.8926L4.74047 47.8037L7.32238 39.8574L0.56285 34.9463H8.91809L11.5 27Z" fill="#E0E3E6"/>
<circle cx="242" cy="180" r="144" fill="url(#paint0_radial_11_8)"/>
<path fill-rule="evenodd" clip-rule="evenodd" d="M334.62 311C317.895 329.628 282.705 342.461 242 342.461C201.295 342.461 166.105 329.628 149.38 311C142.731 318.405 139 326.725 139 335.519C139 366.437 185.115 391.5 242 391.5C298.885 391.5 345 366.437 345 335.519C345 326.725 341.269 318.405 334.62 311Z" fill="#D9D9D9"/>
<path fill-rule="evenodd" clip-rule="evenodd" d="M334.62 311C317.895 329.628 282.705 342.461 242 342.461C201.295 342.461 166.105 329.628 149.38 311C142.731 318.405 139 326.725 139 335.519C139 366.437 185.115 391.5 242 391.5C298.885 391.5 345 366.437 345 335.519C345 326.725 341.269 318.405 334.62 311Z" fill="url(#paint1_radial_11_8)"/>
<defs>
<radialGradient id="paint0_radial_11_8" cx="0" cy="0" r="1" gradientUnits="userSpaceOnUse" gradientTransform="translate(242 180) rotate(90) scale(144)">
<stop stop-color="#1F313E"/>
<stop offset="1" stop-color="#596C7A"/>
</radialGradient>
<radialGradient id="paint1_radial_11_8" cx="0" cy="0" r="1" gradientUnits="userSpaceOnUse" gradientTransform="translate(242 351.25) rotate(90) scale(40.25 103)">
<stop stop-color="#596C7A"/>
<stop offset="1" stop-color="#84929D"/>
</radialGradient>
</defs>
</svg>
