<svg width="288" height="356" viewBox="0 0 288 356" fill="none" xmlns="http://www.w3.org/2000/svg">
<circle cx="144" cy="144" r="144" fill="url(#paint0_radial_11_8)"/>
<path fill-rule="evenodd" clip-rule="evenodd" d="M236.62 275C219.895 293.628 184.705 306.461 144 306.461C103.295 306.461 68.1053 293.628 51.3796 275C44.731 282.405 41 290.725 41 299.519C41 330.437 87.1147 355.5 144 355.5C200.885 355.5 247 330.437 247 299.519C247 290.725 243.269 282.405 236.62 275Z" fill="#D9D9D9"/>
<path fill-rule="evenodd" clip-rule="evenodd" d="M236.62 275C219.895 293.628 184.705 306.461 144 306.461C103.295 306.461 68.1053 293.628 51.3796 275C44.731 282.405 41 290.725 41 299.519C41 330.437 87.1147 355.5 144 355.5C200.885 355.5 247 330.437 247 299.519C247 290.725 243.269 282.405 236.62 275Z" fill="url(#paint1_radial_11_8)"/>
<defs>
<radialGradient id="paint0_radial_11_8" cx="0" cy="0" r="1" gradientUnits="userSpaceOnUse" gradientTransform="translate(144 144) rotate(90) scale(144)">
<stop stop-color="#1F313E"/>
<stop offset="1" stop-color="#596C7A"/>
</radialGradient>
<radialGradient id="paint1_radial_11_8" cx="0" cy="0" r="1" gradientUnits="userSpaceOnUse" gradientTransform="translate(144 315.25) rotate(90) scale(40.25 103)">
<stop stop-color="#596C7A"/>
<stop offset="1" stop-color="#84929D"/>
</radialGradient>
</defs>
</svg>
