<svg width="368" height="392" viewBox="0 0 368 392" fill="none" xmlns="http://www.w3.org/2000/svg">
<path d="M59 0L70.2257 34.5491H106.553L77.1636 55.9017L88.3893 90.4509L59 69.0983L29.6107 90.4509L40.8364 55.9017L11.4472 34.5491H47.7743L59 0Z" fill="#CEEBE2"/>
<path d="M39.5 224L48.3683 251.294L77.0667 251.294L53.8492 268.162L62.7175 295.456L39.5 278.588L16.2825 295.456L25.1508 268.162L1.93327 251.294L30.6317 251.294L39.5 224Z" fill="#8ECAF5"/>
<path d="M306 116L313.184 138.111H336.434L317.625 151.777L324.809 173.889L306 160.223L287.191 173.889L294.375 151.777L275.566 138.111H298.816L306 116Z" fill="#F7E8E1"/>
<path d="M348 303L352.49 316.82H367.021L355.265 325.361L359.756 339.18L348 330.639L336.244 339.18L340.735 325.361L328.979 316.82H343.51L348 303Z" fill="#B0BAC1"/>
<circle cx="162" cy="180" r="144" fill="url(#paint0_radial_11_8)"/>
<path fill-rule="evenodd" clip-rule="evenodd" d="M254.62 311C237.895 329.628 202.705 342.461 162 342.461C121.295 342.461 86.1053 329.628 69.3796 311C62.731 318.405 59 326.725 59 335.519C59 366.437 105.115 391.5 162 391.5C218.885 391.5 265 366.437 265 335.519C265 326.725 261.269 318.405 254.62 311Z" fill="#D9D9D9"/>
<path fill-rule="evenodd" clip-rule="evenodd" d="M254.62 311C237.895 329.628 202.705 342.461 162 342.461C121.295 342.461 86.1053 329.628 69.3796 311C62.731 318.405 59 326.725 59 335.519C59 366.437 105.115 391.5 162 391.5C218.885 391.5 265 366.437 265 335.519C265 326.725 261.269 318.405 254.62 311Z" fill="url(#paint1_radial_11_8)"/>
<defs>
<radialGradient id="paint0_radial_11_8" cx="0" cy="0" r="1" gradientUnits="userSpaceOnUse" gradientTransform="translate(162 180) rotate(90) scale(144)">
<stop stop-color="#1F313E"/>
<stop offset="1" stop-color="#596C7A"/>
</radialGradient>
<radialGradient id="paint1_radial_11_8" cx="0" cy="0" r="1" gradientUnits="userSpaceOnUse" gradientTransform="translate(162 351.25) rotate(90) scale(40.25 103)">
<stop stop-color="#596C7A"/>
<stop offset="1" stop-color="#84929D"/>
</radialGradient>
</defs>
</svg>
